<?xml version="1.0" encoding="UTF-8"?>
<svg id="Layer_2" xmlns="http://www.w3.org/2000/svg" xmlns:xlink="http://www.w3.org/1999/xlink" viewBox="0 0 1579.11 410.27">
  <defs>
    <style>
      .cls-1 {
        fill: none;
      }

      .cls-2 {
        clip-path: url(#clippath);
      }
    </style>
    <clipPath id="clippath">
      <rect class="cls-1" width="1579.11" height="410.27"/>
    </clipPath>
  </defs>
  <g id="Logo_-_Black">
    <g id="Wordmark">
      <g class="cls-2">
        <g>
          <path d="M227.24,182.5c0,32.47-22.21,52.97-43.06,60.49-17.43,6.49-41,6.83-60.82,6.83H0v-3.42c11.28-1.71,23.24-5.81,29.39-12.99,4.44-5.47,5.81-22.21,6.15-36.91.34-12.64.68-45.79.68-70.74,0-27.34,0-39.3-.34-66.64-.34-16.06-1.37-35.88-6.83-41.69-6.83-7.18-12.99-8.89-25.29-10.25v-3.42h120.97c17.43,0,33.15,1.71,48.18,7.18,23.24,8.54,40.32,26.66,40.32,53.66,0,29.73-21.87,48.87-52.97,55.02v1.37c33.49,3.76,66.98,24.95,66.98,61.52ZM166.75,64.59c0-22.56-11.62-41.69-27.68-49.21-9.23-4.44-21.53-6.83-36.22-6.83-8.88,0-16.4,1.03-20.16,2.39-1.02,5.81-1.02,7.18-1.71,23.92-1.03,31.78-.68,82.36-.68,86.46,14.01,0,23.58,0,29.39-.34,37.93-2.39,57.07-25.29,57.07-56.39ZM180.08,186.26c0-25.97-16.4-47.85-39.3-55.71-9.23-3.08-17.77-4.1-29.73-4.1h-30.75c0,29.39,0,59.12.34,74.16.34,17.09.68,28.02,5.81,35.2,3.76,5.13,10.59,8.89,24.94,8.89,12.3,0,27.34-1.03,41-8.54,17.43-9.91,27.68-27,27.68-49.9Z"/>
          <path d="M519.74,249.82h-77.23c-7.86-8.2-5.47-4.78-19.82-25.97-17.08-25.29-24.6-39.64-46.47-64.93-8.89-10.25-20.16-21.53-31.78-23.92-5.13-1.03-6.84-.68-10.94-1.03,0,29.39,0,51.26.34,66.3.34,14.7,0,24.95,4.44,31.78,3.76,5.81,14.69,13.67,33.15,14.35v3.42h-117.55v-3.42c11.28-1.71,23.58-5.12,29.39-12.3,4.78-5.81,5.13-22.9,5.47-37.59.34-12.64.68-44.43.68-70.74V59.12c0-16.4-.34-35.54-5.81-41.35-6.84-7.18-15.38-8.89-27.68-10.59v-3.42c7.18,0,75.86-.34,100.46-.34,30.41,0,53.99.34,73.47,10.59,19.82,10.25,33.83,27.68,33.83,55.02,0,33.49-25.97,53.66-56.72,63.22v.68c7.52,4.1,15.38,12.99,22.21,22.56,11.96,17.09,26.99,39.3,37.93,54.68,16.75,23.92,31.1,33.15,52.62,36.22v3.42ZM416.88,67.33c0-22.56-10.25-41.35-30.41-51.6-10.25-5.13-21.52-7.18-33.49-7.18-8.88,0-14.35.68-17.09,1.03-1.02,5.47-1.37,5.81-1.71,26.32-1.03,31.78-.68,86.46-.68,93.64,17.08,0,30.76-1.03,45.79-6.15,26.99-9.23,37.59-31.44,37.59-56.05Z"/>
          <path d="M769.74,7.18c-16.74,2.39-26.65,8.2-32.12,21.19-3.08,6.83-1.44,30.76-1.78,51.6-.34,19.48-.37,42.38-1.05,72.79-.68,25.63-5.03,101.16-105.49,101.16s-100.47-74.16-100.47-91.25c0-12.65.34-34.18.34-58.1v-45.45c0-16.06,0-33.83-5.13-39.99-6.49-7.52-16.4-10.59-28.36-11.96v-3.42h110.03v3.42c-12.98,1.71-31.09,6.15-31.78,27.34-.68,23.58-.68,34.18-.68,58.78s.34,46.82.68,66.3c1.03,48.53,25.29,80.65,70.74,80.65,76.54,0,79.28-58.44,79.96-104.92.34-24.61,0-35.88,0-55.36,0-18.11-.34-39.3-3.76-48.87-4.44-12.64-15.37-20.85-37.24-23.92v-3.42h86.11v3.42Z"/>
          <path d="M1054.07,7.18c-16.74,2.39-27.34,8.2-32.8,21.19-3.08,6.83-1.76,27.68-2.44,48.53-.69,19.48-.71,47.16-.71,77.58,0,25.97.34,65.28.34,91.93,0,2.73-4.37,5.81-8.13,5.81-2.74,0-5.13-2.05-7.18-4.44-76.89-89.2-121.65-142.51-182.48-212.57v141.49c0,22.55.68,43.4,5.13,52.29,5.13,10.25,16.06,15.04,34.51,17.43v3.42h-85.43v-3.42c10.94-1.37,22.92-5.13,29.07-15.04,6.15-9.57,5.52-28.71,6.2-54.68.68-19.48.37-47.16.37-77.58,0-24.7.31-31.47-.25-54.71-.08-3.35-.44-6.69-1.2-9.95-4.93-21.22-19.27-25.39-31.8-27.27v-3.42h74.84l157.19,182.84v-109.7c0-18.11,0-36.23-3.42-45.8-4.44-12.64-16.06-20.85-37.93-23.92v-3.42h86.11v3.42Z"/>
          <path d="M1325.16,125.08c0,72.79-59.8,127.13-130.53,127.13s-129.17-52.29-129.17-125.76c0-78.6,61.16-126.11,133.61-126.11,78.6,0,126.09,59.12,126.09,124.74ZM1275.61,125.42c0-55.36-25.97-119.27-80.64-119.27s-80.3,62.54-80.3,121.32c0,61.86,26.65,118.93,81.33,118.93s79.61-63.91,79.61-120.98Z"/>
          <path d="M1382.33,30.89c0,24.26-20.15,42.38-47.15,42.38v-3.42c17.08-3.08,28.71-12.99,28.71-28.02,0-3.08-1.03-6.49-1.71-8.54-4.1,3.76-10.25,4.78-13.32,4.78-10.6,0-16.41-8.89-16.41-17.43,0-12.99,10.95-20.51,22.91-20.51,17.08,0,26.98,14.01,26.98,30.76Z"/>
          <path d="M1579.11,180.45c0,45.11-40.32,72.45-92.25,72.45-45.12,0-66.3-16.06-68.69-16.06-1.37,0-6.83,7.52-10.6,12.64h-3.07l-1.02-72.79h3.41c8.21,24.26,28.71,50.92,44.77,60.49,7.51,4.44,21.18,10.25,33.83,10.25,32.13,0,54.34-19.48,54.34-50.24,0-24.61-17.43-35.88-39.64-44.09-18.11-6.49-30.42-10.25-49.56-17.77-25.62-10.25-45.45-32.47-45.45-62.54,0-49.21,42.03-72.79,85.44-72.79s59.79,17.09,62.19,17.09c1.36,0,6.84-7.52,10.25-12.99h3.75v67.67h-3.75c-11.28-30.76-37.25-66.3-70.73-66.3-28.37,0-50.24,18.8-50.24,46.82,0,23.58,17.76,36.91,39.64,45.11,15.72,6.15,30.07,10.94,46.81,17.09,32.46,12.3,50.57,32.47,50.57,65.96Z"/>
          <path d="M337.14,408.49v-73.26h49.92c10.65,0,27.32,2.08,27.32,18.99,0,12.35-9.57,14.42-10.65,15.05,7.53,2.28,14.42,7.99,14.42,18.78,0,1.97-.11,6.33-3.23,10.89-6.45,9.44-18.83,9.55-29.05,9.55h-48.74ZM348.01,366.15h39.7c4.95,0,10.22-.1,13.45-4.57.75-1.04,2.04-3.32,2.04-6.64,0-1.87-.43-6.23-5.06-9.03-3.76-2.28-8.18-2.28-12.37-2.28h-37.76v22.52ZM348.01,399.98h41.1c5.6,0,11.51-.52,15.28-5.19,1.08-1.25,2.48-3.84,2.48-7.47,0-1.56,0-4.36-2.15-7.37-3.66-5.09-9.79-5.4-15.6-5.4h-41.1v25.42Z"/>
          <path d="M555.1,408.49h-12.48l-9.25-18.06h-46.69l-9.25,18.06h-12.16l39.38-73.26h11.51l38.95,73.26ZM528.75,382.03l-18.61-36.32-18.94,36.32h37.55Z"/>
          <path d="M694.43,408.49h-14.09l-25.71-29.37h-36.69v29.37h-10.86v-73.26h51.75c6.45,0,8.82.31,12.05,1.14,10.22,2.59,16.03,10.27,16.03,20.34,0,3.94-.86,14.22-12.27,18.78-1.94.73-3.98,1.35-8.29,1.97l28.08,31.03ZM617.83,370.51h37.55c6.13,0,13.34-.21,17.54-5.4,1.08-1.25,2.8-3.74,2.8-7.99,0-1.35-.11-4.15-1.94-7.16-3.23-5.5-8.28-6.02-14.2-6.02h-41.75v26.57Z"/>
          <path d="M751.17,408.49v-73.26h49.92c10.65,0,27.32,2.08,27.32,18.99,0,12.35-9.58,14.42-10.65,15.05,7.53,2.28,14.42,7.99,14.42,18.78,0,1.97-.11,6.33-3.23,10.89-6.45,9.44-18.83,9.55-29.05,9.55h-48.74ZM762.04,366.15h39.7c4.95,0,10.22-.1,13.45-4.57.75-1.04,2.05-3.32,2.05-6.64,0-1.87-.43-6.23-5.06-9.03-3.77-2.28-8.18-2.28-12.37-2.28h-37.76v22.52ZM762.04,399.98h41.1c5.6,0,11.51-.52,15.28-5.19,1.07-1.25,2.47-3.84,2.47-7.47,0-1.56,0-4.36-2.15-7.37-3.66-5.09-9.79-5.4-15.6-5.4h-41.1v25.42Z"/>
          <path d="M968.01,408.49h-72.84v-73.26h70.04v9.03h-59.28v21.79h57.77v8.72h-57.77v24.7h62.08v9.03Z"/>
          <path d="M1115.19,408.49h-14.1l-25.71-29.37h-36.69v29.37h-10.87v-73.26h51.75c6.46,0,8.82.31,12.05,1.14,10.22,2.59,16.03,10.27,16.03,20.34,0,3.94-.86,14.22-12.26,18.78-1.94.73-3.98,1.35-8.28,1.97l28.08,31.03ZM1038.59,370.51h37.55c6.13,0,13.34-.21,17.53-5.4,1.08-1.25,2.8-3.74,2.8-7.99,0-1.35-.11-4.15-1.93-7.16-3.23-5.5-8.29-6.02-14.2-6.02h-41.75v26.57Z"/>
          <path d="M1162.63,393.65l10.01-3.94c2.9,3.01,5.16,5.39,12.05,8.09,8.71,3.42,18.18,3.53,21.84,3.53s13.55,0,20.33-4.98c4.52-3.32,5.16-7.89,5.16-9.86,0-9.34-10.76-10.9-19.58-11.62l-11.62-1.04c-14.85-1.35-21.62-1.87-27.22-6.85-5.16-4.56-5.38-9.75-5.38-12.24,0-10.27,7.32-14.94,10.54-16.6,4.52-2.39,12.8-4.77,25.07-4.77,22.92,0,33.14,8.1,37.97,14.74l-9.89,3.84c-6.78-6.12-14.42-9.96-27.97-9.96-11.3,0-24.96,2.39-24.96,12.24,0,7.89,7.74,9.13,15.38,9.86l23.56,2.18c15.49,1.45,24.74,8.09,24.74,20.13,0,11.1-7.64,23.87-37.22,23.87-17.21,0-35.18-4.46-42.82-16.6Z"/>
        </g>
      </g>
    </g>
  </g>
</svg>